<svg width="23" height="18" viewBox="0 0 23 18" fill="none" xmlns="http://www.w3.org/2000/svg">
<path d="M17.4941 1C18.5822 1.00007 19.5415 1.6006 20.0117 1.95215C20.1135 2.02653 20.1689 2.14648 20.1689 2.2666V2.64551C20.3256 2.77437 20.4277 2.86661 20.4365 2.87598C20.4457 2.88474 20.4458 2.89402 20.4551 2.90332C20.4826 2.95897 23 8.254 23 13.2803C23 17.0215 21.6629 17.4286 21.0908 17.4287C19.1914 17.4287 18.5187 16.6435 17.7988 15.8115C16.8491 14.6936 15.7502 13.4376 11.5 13.4375C7.24982 13.4375 6.16119 14.7029 5.20215 15.8115C4.48231 16.6435 3.80945 17.4286 1.91016 17.4287C1.33822 17.4287 0 17.0315 0 13.2803C8.72498e-07 8.254 2.5184 2.95897 2.5459 2.90332C2.54617 2.89409 2.55524 2.88466 2.56445 2.87598C2.583 2.86613 2.67578 2.77405 2.83203 2.64551V2.2666C2.83203 2.1465 2.88657 2.02654 2.98828 1.95215C3.46782 1.59179 4.41852 1 5.50684 1C5.91183 1.00003 6.26192 1.04677 6.5752 1.12988C6.74117 1.17559 6.86117 1.33316 6.86133 1.50879V1.79492C7.20272 1.91555 7.47001 2.08168 7.75586 2.25684C8.47462 2.7004 9.28597 3.19043 11.5 3.19043C13.7138 3.19038 14.5254 2.691 15.2441 2.25684C15.5213 2.09046 15.7972 1.9244 16.1387 1.79492V1.50879C16.1388 1.33317 16.2588 1.1756 16.4248 1.12988C16.7383 1.03731 17.0888 1 17.4941 1ZM8.20312 7.94336C7.97585 7.8866 7.73802 7.88661 7.51074 7.94336L7.50195 7.94531C7.37483 7.97709 7.28526 8.09166 7.28516 8.22266V9.28516H6.22266C6.09158 9.28516 5.97714 9.37482 5.94531 9.50195L5.94336 9.51074C5.88653 9.73809 5.88655 9.97577 5.94336 10.2031L5.94531 10.2119C5.97711 10.3391 6.09155 10.4287 6.22266 10.4287H7.28516V11.4902C7.28516 11.6213 7.37476 11.7358 7.50195 11.7676L7.51074 11.7695C7.73812 11.8263 7.97575 11.8263 8.20312 11.7695L8.21191 11.7676C8.33908 11.7358 8.42871 11.6213 8.42871 11.4902V10.4287H9.49023C9.62134 10.4287 9.73578 10.3391 9.76758 10.2119L9.76953 10.2031C9.82635 9.97575 9.82637 9.73811 9.76953 9.51074L9.76758 9.50195C9.73574 9.37484 9.6213 9.28516 9.49023 9.28516H8.42871V8.22266C8.42861 8.09166 8.33903 7.97709 8.21191 7.94531L8.20312 7.94336ZM14.7617 7.76855C13.7051 7.76865 12.8486 8.62515 12.8486 9.68164C12.8487 10.7381 13.7051 11.5946 14.7617 11.5947C15.8184 11.5947 16.6748 10.7382 16.6748 9.68164C16.6748 8.62509 15.8184 7.76855 14.7617 7.76855ZM18.3076 6.20898C17.9027 6.20924 17.5703 6.54095 17.5703 6.94629C17.5706 7.35142 17.9028 7.68432 18.3076 7.68457C18.7132 7.68457 19.0457 7.35102 19.0459 6.94629C19.0459 6.54135 18.7128 6.20898 18.3076 6.20898ZM4.91895 3.58105C3.86226 3.58105 3.00488 4.43759 3.00488 5.49414C3.00494 6.55064 3.8623 7.40723 4.91895 7.40723C5.97539 7.40699 6.83197 6.55049 6.83203 5.49414C6.83203 4.43774 5.97543 3.58129 4.91895 3.58105ZM17.0596 5.05859C16.6539 5.05861 16.3213 5.39195 16.3213 5.79688C16.3214 6.20167 16.6474 6.53416 17.0596 6.53418C17.4646 6.53418 17.7977 6.20168 17.7979 5.79688C17.7979 5.39194 17.4653 5.05859 17.0596 5.05859ZM19.5566 5.05859C19.1518 5.05884 18.8184 5.39062 18.8184 5.7959C18.8184 6.20124 19.1517 6.53393 19.5566 6.53418C19.9612 6.53418 20.2949 6.20029 20.2949 5.7959C20.2948 5.39157 19.9617 5.05859 19.5566 5.05859ZM18.3076 3.75684C17.9027 3.75709 17.5703 4.09033 17.5703 4.49512C17.5628 4.89972 17.9023 5.23119 18.3076 5.23145C18.7132 5.23145 19.0457 4.89988 19.0459 4.49512C19.0459 4.09018 18.7133 3.75684 18.3076 3.75684Z" fill="white"/>
</svg>
