<svg width="1em" height="1em" viewBox="0 0 150 100" fill="none" xmlns="http://www.w3.org/2000/svg">
<g clip-path="url(#clip0_69_76)">
<path d="M130.758 0C141.385 1.64929e-05 150 8.61504 150 19.2422V80.7578C150 91.385 141.385 100 130.758 100H19.2422C8.61503 100 0 91.385 0 80.7578V19.2422C1.03088e-06 8.61503 8.61503 0 19.2422 0H130.758ZM18.207 67.7783C16.436 67.7783 15.0003 69.2134 15 70.9844V80.126C15 81.8971 16.4359 83.333 18.207 83.333H29.5703C31.3415 83.333 32.7773 81.8971 32.7773 80.126V70.9844C32.7771 69.2134 31.3413 67.7783 29.5703 67.7783H18.207ZM120.43 67.7783C118.659 67.7783 117.223 69.2142 117.223 70.9854V80.126C117.223 81.8971 118.659 83.333 120.43 83.333H131.793C133.564 83.333 135 81.8971 135 80.126V70.9854C135 69.2142 133.564 67.7783 131.793 67.7783H120.43ZM44.9473 67.3477C43.3903 67.3477 42.1282 68.5912 42.1279 70.125V80.124C42.1279 81.658 43.3902 82.9023 44.9473 82.9023H105.846C107.403 82.9022 108.665 81.6579 108.665 80.124V70.125C108.665 68.5913 107.403 67.3478 105.846 67.3477H44.9473ZM108.207 42.2227C106.436 42.2228 105 43.6586 105 45.4297V54.5713C105 56.3423 106.436 57.7782 108.207 57.7783H119.57C121.341 57.7783 122.777 56.3423 122.777 54.5713V45.4297C122.777 43.6585 121.341 42.2227 119.57 42.2227H108.207ZM31.54 42.2227C29.7689 42.2227 28.333 43.6585 28.333 45.4297V54.5703C28.333 56.3415 29.7689 57.7773 31.54 57.7773H42.9033C44.6745 57.7773 46.1104 56.3415 46.1104 54.5703V45.4297C46.1104 43.6585 44.6745 42.2227 42.9033 42.2227H31.54ZM57.0957 42.2227C55.3245 42.2227 53.8887 43.6585 53.8887 45.4297V54.5703C53.8887 56.3415 55.3245 57.7773 57.0957 57.7773H68.459C70.2302 57.7773 71.666 56.3415 71.666 54.5703V45.4297C71.666 43.6585 70.2302 42.2227 68.459 42.2227H57.0957ZM82.6514 42.2227C80.8804 42.2228 79.4443 43.6586 79.4443 45.4297V54.5713C79.4446 56.3421 80.8805 57.7772 82.6514 57.7773H94.0156C95.7865 57.7772 97.2224 56.3421 97.2227 54.5713V45.4297C97.2227 43.6586 95.7866 42.2228 94.0156 42.2227H82.6514ZM18.207 17.7783C16.436 17.7783 15.0002 19.2134 15 20.9844V30.126C15 31.8971 16.4359 33.333 18.207 33.333H29.5703C31.3415 33.333 32.7773 31.8971 32.7773 30.126V20.9844C32.7771 19.2134 31.3413 17.7783 29.5703 17.7783H18.207ZM43.7627 17.7773C41.9918 17.7776 40.5559 19.2135 40.5557 20.9844V30.126C40.5557 31.897 41.9917 33.3328 43.7627 33.333H55.127C56.898 33.3328 58.334 31.897 58.334 30.126V20.9844C58.3338 19.2135 56.8978 17.7775 55.127 17.7773H43.7627ZM69.3184 17.7773C67.5475 17.7775 66.1115 19.2135 66.1113 20.9844V30.126C66.1113 31.897 67.5473 33.3328 69.3184 33.333H80.6826C82.4536 33.3328 83.8896 31.897 83.8896 30.126V20.9844C83.8894 19.2135 82.4535 17.7776 80.6826 17.7773H69.3184ZM94.874 17.7773C93.1031 17.7775 91.6672 19.2135 91.667 20.9844V30.126C91.667 31.897 93.103 33.3328 94.874 33.333H106.238C108.009 33.3328 109.445 31.897 109.445 30.126V20.9844C109.445 19.2135 108.009 17.7776 106.238 17.7773H94.874ZM120.43 17.7773C118.659 17.7773 117.223 19.2134 117.223 20.9844V30.126C117.223 31.8971 118.659 33.333 120.43 33.333H131.793C133.564 33.333 135 31.8971 135 30.126V20.9844C135 19.2134 133.564 17.7774 131.793 17.7773H120.43Z" fill="white"/>
</g>
<defs>
<clipPath id="clip0_69_76">
<rect width="150" height="100" fill="white"/>
</clipPath>
</defs>
</svg>
