<svg width="1em" height="1em" viewBox="0 0 70 100" fill="none" xmlns="http://www.w3.org/2000/svg">
<path d="M68.4025 66.5582C68.4025 85.0275 53.4259 99.9998 34.9513 99.9998C16.4766 99.9998 1.5 85.0275 1.5 66.5582C1.5 57.8372 1.70295 44.2431 1.70295 44.2431C1.70295 44.2431 21.4778 51.1103 34.9513 51.1103C48.3867 51.1103 68.1616 44.243 68.1616 44.243C68.1616 44.243 68.4025 59.1204 68.4025 66.5582Z" fill="white"/>
<mask id="mask0_68_2" style="mask-type:alpha" maskUnits="userSpaceOnUse" x="1" y="0" width="68" height="68">
<path d="M1.5 67.0601C1.5 36.0546 2.42566 23.9295 3.14964 19.1877C3.14964 19.1877 5.83315 1.52588e-05 34.9513 1.52588e-05C64.0694 1.52588e-05 66.7529 19.1877 66.7529 19.1877C67.4769 23.9295 68.4025 36.0546 68.4025 67.0601H1.5Z" fill="white"/>
</mask>
<g mask="url(#mask0_68_2)">
<path d="M44.6321 39.4245H25.8585L27.8327 -0.831123H41.809L44.6321 39.4245ZM31.8233 13.8235C29.4633 14.9456 27.8327 17.35 27.8327 20.1364V31.1183C27.8335 34.9769 30.964 38.1034 34.8239 38.1034C38.6825 38.1018 41.8083 34.9759 41.809 31.1183V20.1364C41.809 17.3499 40.1785 14.9456 37.8184 13.8235V-0.831123H31.8233V13.8235Z" fill="white"/>
<path d="M75.5264 9.8259V39.4245H73.418L68.4023 40.4763V38.1062C68.3382 38.1286 48.5622 45.0271 34.9512 45.0271C21.3219 45.027 1.5112 38.1101 1.5 38.1062V39.4343L1.45312 39.4245H-1.67676L-2.22461 9.8259L30.2393 -4.38016C30.2205 -4.30128 27.1104 8.82513 27.1104 30.0378C27.1104 38.7874 35.2243 38.7985 35.2451 38.7986C35.2451 38.7986 42.4413 38.7987 42.4414 30.0378C42.4414 14.4372 40.8857 -4.27489 40.877 -4.38016L75.5264 9.8259Z" fill="white"/>
</g>
</svg>
