<svg width="31" height="18" viewBox="0 0 31 18" fill="none" xmlns="http://www.w3.org/2000/svg">
<path d="M21.4805 0C19.3176 1.39278 18.6004 2.66608 18.3799 3.19922H17.0791C16.7603 3.19922 16.5021 3.45774 16.502 3.77637V5.42188C16.502 5.74064 16.7603 5.99902 17.0791 5.99902H18.2891V12.1221H8.09082C7.81068 12.1221 7.5833 12.3453 7.58301 12.6211V14.4209C7.58301 14.697 7.8105 14.9209 8.09082 14.9209H18.4043C18.6516 15.5792 19.3926 16.9503 21.4805 17.999H3.46387C1.55081 17.9989 0 16.4479 0 14.5352V3.46289C8.84221e-05 1.55027 1.55086 0.000117305 3.46387 0C3.46387 0 19.6389 0.00517353 21.4805 0ZM3.27734 12.1992C2.9587 12.1995 2.70022 12.4578 2.7002 12.7764V14.4219C2.70043 14.7403 2.95883 14.9988 3.27734 14.999H5.32324C5.64195 14.999 5.90016 14.7404 5.90039 14.4219V12.7764C5.90037 12.4576 5.64208 12.1992 5.32324 12.1992H3.27734ZM5.67773 7.59863C5.35914 7.59874 5.10086 7.85731 5.10059 8.17578V9.82129C5.10059 10.14 5.35897 10.3983 5.67773 10.3984H7.72363C8.04249 10.3984 8.30078 10.1401 8.30078 9.82129V8.17578C8.3005 7.85725 8.04232 7.59863 7.72363 7.59863H5.67773ZM10.2783 7.59863C9.95972 7.59874 9.70145 7.85731 9.70117 8.17578V9.82129C9.70117 10.14 9.95955 10.3983 10.2783 10.3984H12.3242C12.6431 10.3984 12.9014 10.1401 12.9014 9.82129V8.17578C12.9011 7.85725 12.6429 7.59863 12.3242 7.59863H10.2783ZM14.8789 7.59961C14.5603 7.59984 14.3018 7.85815 14.3018 8.17676V9.82129C14.3018 10.1399 14.5603 10.3982 14.8789 10.3984H16.9248C17.2437 10.3984 17.502 10.1401 17.502 9.82129V8.17676C17.5019 7.85801 17.2436 7.59961 16.9248 7.59961H14.8789ZM3.27734 3.19922C2.95878 3.19944 2.70035 3.45787 2.7002 3.77637V5.42188C2.70021 5.7405 2.95869 5.9988 3.27734 5.99902H5.32324C5.64209 5.99902 5.90038 5.74064 5.90039 5.42188V3.77637C5.90023 3.45773 5.642 3.19922 5.32324 3.19922H3.27734ZM7.87891 3.19922C7.56015 3.19922 7.30191 3.45773 7.30176 3.77637V5.42188C7.30177 5.74063 7.56006 5.99902 7.87891 5.99902H9.9248C10.2434 5.99877 10.5019 5.74048 10.502 5.42188V3.77637C10.5018 3.45788 10.2434 3.19947 9.9248 3.19922H7.87891ZM12.4785 3.19922C12.16 3.19945 11.9015 3.45788 11.9014 3.77637V5.42188C11.9014 5.74049 12.1599 5.99879 12.4785 5.99902H14.5244C14.8433 5.99902 15.1016 5.74064 15.1016 5.42188V3.77637C15.1014 3.45773 14.8432 3.19922 14.5244 3.19922H12.4785Z" fill="white"/>
<path d="M30.6985 11.8359C30.6985 14.7873 28.3053 17.1799 25.353 17.1799C22.4008 17.1799 20.0076 14.7873 20.0076 11.8359C20.0076 10.4423 20.04 8.27 20.04 8.27C20.04 8.27 23.2 9.36737 25.353 9.36737C27.5 9.36737 30.66 8.26999 30.66 8.26999C30.66 8.26999 30.6985 10.6474 30.6985 11.8359Z" fill="white"/>
<mask id="mask0_66_2" style="mask-type:alpha" maskUnits="userSpaceOnUse" x="20" y="1" width="11" height="11">
<path d="M20.0076 11.9162C20.0076 6.96152 20.1555 5.02394 20.2712 4.26622C20.2712 4.26622 20.7 1.20004 25.353 1.20004C30.0061 1.20004 30.4349 4.26622 30.4349 4.26622C30.5506 5.02394 30.6985 6.96152 30.6985 11.9162H20.0076Z" fill="white"/>
</mask>
<g mask="url(#mask0_66_2)">
<path d="M26.8999 7.5H23.8999L24.2154 1.0672H26.4488L26.8999 7.5ZM24.8531 3.409C24.4759 3.5883 24.2154 3.97252 24.2154 4.41779V6.17267C24.2155 6.78927 24.7158 7.28888 25.3326 7.28888C25.9492 7.28863 26.4486 6.78911 26.4488 6.17267V4.41779C26.4488 3.9725 26.1882 3.5883 25.8111 3.409V1.0672H24.8531V3.409Z" fill="white"/>
<path d="M31.8367 2.77026V7.49976H31.4998L30.699 7.66675V7.28979C30.699 7.28979 27.5318 8.39518 25.3533 8.39526C23.1832 8.39526 20.0322 7.29839 20.0076 7.28979V7.50073L19.9998 7.49976H19.4998L19.4128 2.77026L24.6003 0.499756C24.6003 0.499756 24.1004 2.5999 24.1003 5.99976C24.1003 7.39976 25.4001 7.40015 25.4001 7.40015C25.4126 7.4001 26.5496 7.39208 26.5496 5.99976C26.5495 3.4998 26.2996 0.499756 26.2996 0.499756L31.8367 2.77026Z" fill="white"/>
</g>
</svg>
