<svg width="40" height="40" viewBox="0 0 40 40" fill="none" xmlns="http://www.w3.org/2000/svg">
<path d="M24.5 4C22.7372 5.13541 22.153 6.17328 21.9736 6.60742H20.915C20.6554 6.60742 20.4445 6.81755 20.4443 7.07715V8.41797C20.4443 8.67775 20.6553 8.88867 20.915 8.88867H21.9004V13.8779H13.5918C13.3634 13.8779 13.1787 14.0602 13.1787 14.2852V15.752C13.1789 15.9768 13.3636 16.1592 13.5918 16.1592H21.9941C22.1958 16.6958 22.7995 17.8127 24.5 18.667H9.82227C8.26373 18.667 7.00016 17.4033 7 15.8447V6.82227C7.00002 5.26359 8.26365 4 9.82227 4C9.86569 4.00001 23.0025 4.00421 24.5 4ZM9.66992 13.9404C9.41035 13.9406 9.20022 14.1515 9.2002 14.4111V15.752C9.20027 16.0115 9.41038 16.2224 9.66992 16.2227H11.3369C11.5966 16.2227 11.8075 16.0117 11.8076 15.752V14.4111C11.8076 14.1514 11.5967 13.9404 11.3369 13.9404H9.66992ZM11.626 10.1924C11.3662 10.1924 11.1553 10.4033 11.1553 10.6631V12.0039C11.1555 12.2635 11.3663 12.4736 11.626 12.4736H13.292C13.5516 12.4736 13.7625 12.2635 13.7627 12.0039V10.6631C13.7627 10.4033 13.5517 10.1924 13.292 10.1924H11.626ZM15.374 10.1924C15.1143 10.1924 14.9033 10.4033 14.9033 10.6631V12.0039C14.9035 12.2635 15.1144 12.4736 15.374 12.4736H17.04C17.2997 12.4736 17.5106 12.2635 17.5107 12.0039V10.6631C17.5107 10.4033 17.2998 10.1924 17.04 10.1924H15.374ZM19.1221 10.1924C18.8624 10.1924 18.6514 10.4034 18.6514 10.6631V12.0039C18.6515 12.2635 18.8624 12.4736 19.1221 12.4736H20.7891C21.0486 12.4735 21.2586 12.2634 21.2588 12.0039V10.6631C21.2588 10.4034 21.0487 10.1925 20.7891 10.1924H19.1221ZM9.6709 6.60742C9.41126 6.60742 9.20041 6.81755 9.2002 7.07715V8.41797C9.2002 8.67775 9.41113 8.88867 9.6709 8.88867H11.3369C11.5967 8.88867 11.8076 8.67775 11.8076 8.41797V7.07715C11.8074 6.81755 11.5966 6.60742 11.3369 6.60742H9.6709ZM13.418 6.60742C13.1584 6.60752 12.9484 6.8176 12.9482 7.07715V8.41797C12.9482 8.67768 13.1583 8.88857 13.418 8.88867H15.085C15.3447 8.88858 15.5547 8.67769 15.5547 8.41797V7.07715C15.5545 6.8176 15.3445 6.60751 15.085 6.60742H13.418ZM17.166 6.60742C16.9065 6.60758 16.6965 6.81764 16.6963 7.07715V8.41797C16.6963 8.67765 16.9064 8.88851 17.166 8.88867H18.833C19.0928 8.88864 19.3037 8.67773 19.3037 8.41797V7.07715C19.3035 6.81756 19.0926 6.60745 18.833 6.60742H17.166Z" fill="white"/>
<path d="M32.0099 13.645C32.0099 16.0502 30.0601 18 27.655 18C25.2498 18 23.3 16.0502 23.3 13.645C23.3 11.2399 25.2498 12.0718 27.655 12.0718C30.0601 12.0718 32.0099 11.2399 32.0099 13.645Z" fill="white"/>
<mask id="mask0_58_86" style="mask-type:alpha" maskUnits="userSpaceOnUse" x="23" y="5" width="10" height="9">
<path d="M23.3 13.7099C23.3 9.67267 23.4206 8.09386 23.5148 7.47644C23.5549 7.21356 23.7224 6.96132 23.9134 6.77631C25.9428 4.81065 29.3671 4.81065 31.3965 6.77631C31.5875 6.96132 31.755 7.21356 31.7951 7.47644C31.8893 8.09386 32.0099 9.67267 32.0099 13.7099H23.3Z" fill="white"/>
</mask>
<g mask="url(#mask0_58_86)">
<path d="M26.4465 9.96637L27.8372 10.0591L28.7649 9.96637V6.25739H32.9368L33.0149 10.3912V14.1002H22.8147V6.25739H26.4465V9.96637ZM32.01 9.94C32.01 9.94 29.4294 10.8414 27.6545 10.8414C25.8805 10.8412 23.3024 9.94081 23.3 9.94V10.7291C23.3207 10.7363 25.8869 11.6303 27.6545 11.6304C29.4294 11.6304 32.01 10.7291 32.01 10.7291V9.94Z" fill="white"/>
</g>
<mask id="mask1_58_86" style="mask-type:alpha" maskUnits="userSpaceOnUse" x="23" y="5" width="9" height="6">
<path d="M31.8147 7.72999C31.8147 9.23772 29.9522 10.46 27.6548 10.46C25.3573 10.46 23.4949 9.23772 23.4949 7.72999C23.4949 6.22226 25.3573 5 27.6548 5C29.9522 5 31.8147 6.22226 31.8147 7.72999Z" fill="white"/>
</mask>
<g mask="url(#mask1_58_86)">
<path d="M32.9197 10.33H22.6501V3.57019H32.9197V10.33ZM27.3298 6.7782C27.0224 6.92423 26.8093 7.23742 26.8093 7.60046V9.03015C26.8094 9.53266 27.217 9.94031 27.7195 9.94031C28.222 9.94028 28.6296 9.53264 28.6296 9.03015V7.60046C28.6296 7.23745 28.4166 6.92425 28.1091 6.7782V4.87H27.3298V6.7782Z" fill="white"/>
</g>
<path d="M23.8428 23C24.704 23 25.4639 23.4757 25.8359 23.7539C25.9162 23.8128 25.9599 23.9071 25.96 24.002V24.3018C26.0823 24.4024 26.1621 24.4753 26.1709 24.4844C26.1783 24.4913 26.1782 24.4994 26.1855 24.5068C26.2095 24.5555 28.2001 28.7426 28.2002 32.7178C28.2002 35.6781 27.1422 36.0008 26.6895 36.001C25.1864 36.001 24.6536 35.3791 24.084 34.7207C23.3325 33.8361 22.4626 32.8428 19.0996 32.8428C15.7366 32.8428 14.8751 33.8435 14.1162 34.7207C13.5466 35.3791 13.0145 36.0009 11.5117 36.001C11.0591 36.001 10 35.6863 10 32.7178C10 28.7448 11.9884 24.5602 12.0146 24.5068C12.0146 24.4994 12.0219 24.4914 12.0293 24.4844C12.0442 24.4763 12.1169 24.4032 12.2402 24.3018V24.002C12.2403 23.9071 12.2841 23.8128 12.3643 23.7539C12.7437 23.4687 13.4962 23 14.3574 23C14.678 23 14.9552 23.0367 15.2031 23.1025C15.3345 23.1387 15.4297 23.2642 15.4297 23.4033V23.6289C15.6999 23.7244 15.9115 23.8555 16.1377 23.9941C16.7064 24.3451 17.3478 24.7334 19.0996 24.7334C20.8516 24.7334 21.4937 24.3377 22.0625 23.9941C22.2818 23.8625 22.5004 23.7314 22.7705 23.6289V23.4033C22.7705 23.2642 22.8656 23.1387 22.9971 23.1025C23.245 23.0293 23.5222 23 23.8428 23ZM16.4912 28.4951C16.3113 28.4502 16.1232 28.4501 15.9434 28.4951L15.9365 28.4971C15.836 28.5223 15.7657 28.6122 15.7656 28.7158V29.5566H14.9248C14.8211 29.5566 14.7302 29.6279 14.7051 29.7285L14.7031 29.7354C14.6583 29.9152 14.6582 30.1034 14.7031 30.2832L14.7051 30.29C14.7302 30.3907 14.8211 30.4609 14.9248 30.4609H15.7656V31.3027C15.7658 31.4063 15.8361 31.4963 15.9365 31.5215L15.9434 31.5234C16.1232 31.5684 16.3114 31.5683 16.4912 31.5234L16.498 31.5215C16.5985 31.4964 16.6697 31.4063 16.6699 31.3027V30.4609H17.5107C17.6145 30.4609 17.7053 30.3907 17.7305 30.29L17.7314 30.2832C17.7764 30.1033 17.7764 29.9153 17.7314 29.7354L17.7305 29.7285C17.7053 29.6279 17.6145 29.5567 17.5107 29.5566H16.6699V28.7158C16.6698 28.6121 16.5986 28.5222 16.498 28.4971L16.4912 28.4951ZM21.6816 28.3564C20.8456 28.3564 20.1672 29.0341 20.167 29.8701C20.167 30.7063 20.8455 31.3848 21.6816 31.3848C22.5177 31.3846 23.1953 30.7062 23.1953 29.8701C23.1951 29.0342 22.5175 28.3566 21.6816 28.3564ZM24.4883 27.1221C24.1678 27.1221 23.9044 27.3842 23.9043 27.7051C23.9043 28.026 24.1677 28.2891 24.4883 28.2891C24.8091 28.2889 25.0723 28.0254 25.0723 27.7051C25.0722 27.3848 24.8086 27.1223 24.4883 27.1221ZM13.8926 25.042C13.0564 25.042 12.3789 25.7204 12.3789 26.5566C12.3791 27.3927 13.0565 28.0703 13.8926 28.0703C14.7286 28.0703 15.4061 27.3927 15.4062 26.5566C15.4062 25.7205 14.7287 25.0421 13.8926 25.042ZM23.5 26.2109C23.179 26.2109 22.915 26.4754 22.915 26.7959C22.9152 27.1163 23.1738 27.3789 23.5 27.3789C23.8205 27.3789 24.0839 27.1163 24.084 26.7959C24.084 26.4754 23.821 26.2109 23.5 26.2109ZM25.4766 26.2109C25.1561 26.2109 24.8918 26.4741 24.8916 26.7949C24.8916 27.1158 25.156 27.3789 25.4766 27.3789C25.7966 27.3787 26.0605 27.1149 26.0605 26.7949C26.0604 26.4751 25.7969 26.2111 25.4766 26.2109ZM24.4883 25.1807C24.1677 25.1807 23.9043 25.4451 23.9043 25.7656C23.8984 26.086 24.1674 26.3486 24.4883 26.3486C24.809 26.3484 25.0721 26.0859 25.0723 25.7656C25.0723 25.4453 24.8091 25.1809 24.4883 25.1807Z" fill="white"/>
</svg>
